# xmcd CD database file
#
# Track frame offsets:
#	150
#	46660
#	82806
#	112014
#	144329
#	179511
#
# Disc length: 3003 seconds
#
# Revision: 0
# Processed by: cddbd v1.4PL0 Copyright (c) Steve Scherf et al.
# Submitted via: CDex 1.51
#
DISCID=440bb906
DTITLE=Medwyn Goodall - Goldern Dreams Forever
DYEAR=1995
DGENRE=New Age
TTITLE0=Medwyn Goodall - Watching Silent Water
TTITLE1=Medwyn Goodall - Hospitality
TTITLE2=Medwyn Goodall - Gysbreght's Wall
TTITLE3=Medwyn Goodall - Miracle
TTITLE4=Medwyn Goodall - Independence
TTITLE5=Medwyn Goodall - Magic Centre
EXTD=YEAR: 1995
EXTT0=
EXTT1=
EXTT2=
EXTT3=
EXTT4=
EXTT5=
PLAYORDER=
